# xmcd
#
# Track frame offsets:
#	150
#	19154
#	50306
#	72483
#	92406
#	115636
#	155556
#	181417
#	200502
#	224234
#
# Disc length: 3375 seconds
#
# Revision: 1
# Processed by: cddbd v1.5.2PL0 Copyright (c) Steve Scherf et al.
# Submitted via: audiograbber 1.83.01
#
DISCID=8d0d2d0a
DTITLE=Leroy Airmaster - Live At Turner Hall
DYEAR=1900
DGENRE=
TTITLE0=Keep On Loving Me Baby
TTITLE1=Wee Wee Baby
TTITLE2=She Caught The Katy And Left Me A Mule To Ride
TTITLE3=Bicycle Seat
TTITLE4=Seven Nights To Rock
TTITLE5=Love Me Or Leave Me
TTITLE6=Look Over Yonder Wall
TTITLE7=Baby Just To Be With You
TTITLE8=You Belong To Me
TTITLE9=Rocket 88
EXTD=
EXTT0=
EXTT1=
EXTT2=
EXTT3=
EXTT4=
EXTT5=
EXTT6=
EXTT7=
EXTT8=
EXTT9=
PLAYORDER=
